<svg height="512pt" viewBox="-118 0 512 512" width="512pt" xmlns="http://www.w3.org/2000/svg"><path d="m268.015625 18.179688-21.300781 347.03125c-1.488282 24.21875-21.558594 43.097656-45.820313 43.097656h-69.449219c-24.257812 0-44.328124-18.878906-45.820312-43.097656l-21.300781-347.03125c-.347657-5.789063 4.25-10.679688 10.050781-10.679688h183.589844c3.5 0 6.5625 1.78125 8.359375 4.46875 1.191406 1.761719 1.832031 3.910156 1.691406 6.210938zm0 0" fill="#76ffd9"/><g fill="#fff"><path d="m93.660156 323.609375h-28.695312c-14.96875 0-27.144532-12.175781-27.144532-27.144531v-101.527344c0-14.96875 12.175782-27.144531 27.144532-27.144531h28.695312v-30.320313h-28.695312c-31.6875 0-57.464844 25.777344-57.464844 57.460938v101.53125c0 31.6875 25.777344 57.464844 57.464844 57.464844h28.695312zm0 0"/><path d="m153.1875 349.398438h25.96875v107.75h-25.96875zm0 0"/><path d="m262.015625 116.011719-15.300781 249.199219c-1.488282 24.21875-21.558594 43.097656-45.820313 43.097656h-69.449219c-24.257812 0-44.328124-18.878906-45.820312-43.097656l-15.300781-249.199219zm0 0"/><path d="m237.015625 118.152344h-145.167969c.683594-3.390625 1.84375-6.609375 3.398438-9.582032 5.175781-9.875 14.78125-17.0625 26.183594-18.925781 1.449218-20.714843 18.707031-37.078125 39.796874-37.078125 15.972657 0 29.746094 9.390625 36.121094 22.945313 18.871094 1.46875 34.332032 15.09375 38.535156 33.058593.722657 3.082032 1.113282 6.285157 1.132813 9.582032zm0 0"/></g><path d="m260.085938 147.539062-.738282 12-12.632812 205.671876c-1.488282 24.21875-21.558594 43.097656-45.820313 43.097656h-69.449219c-24.257812 0-44.328124-18.878906-45.820312-43.097656l-12.628906-205.671876-.738282-12zm0 0" fill="#d9dfe9"/><path d="m259.347656 159.539062-12.632812 205.671876c-1.488282 24.21875-21.558594 43.097656-45.820313 43.097656h-69.449219c-24.257812 0-44.328124-18.878906-45.820312-43.097656l-12.628906-205.671876zm0 0" fill="#ffc843"/><path d="m180.167969 485.164062h-27.996094c-10.953125 0-19.832031-8.878906-19.832031-19.832031s8.878906-19.832031 19.832031-19.832031h27.996094c10.953125 0 19.832031 8.878906 19.832031 19.832031s-8.878906 19.832031-19.832031 19.832031zm0 0" fill="#fff"/><path d="m217.46875 504.5h-102.597656c-3.339844 0-6.042969-2.703125-6.042969-6.042969 0-11.714843 9.496094-21.214843 21.214844-21.214843h72.253906c11.71875 0 21.214844 9.5 21.214844 21.214843 0 3.339844-2.707031 6.042969-6.042969 6.042969zm0 0" fill="#76ffd9"/><path d="m270.757812 5.53125c-3.304687-3.515625-7.972656-5.53125-12.796874-5.53125h-125.933594c-4.140625 0-7.5 3.355469-7.5 7.5s3.359375 7.5 7.5 7.5h125.933594c.964843 0 1.585937.507812 1.871093.808594.285157.304687.753907.957031.695313 1.921875l-11.390625 185.550781c-.253907 4.132812 2.894531 7.691406 7.027343 7.945312.15625.007813.3125.011719.46875.011719 3.929688 0 7.230469-3.0625 7.476563-7.039062l11.386719-185.550781c.296875-4.820313-1.429688-9.597657-4.738282-13.117188zm0 0" fill="#474d54"/><path d="m254.964844 230.773438c-4.136719-.246094-7.691406 2.894531-7.945313 7.027343l-7.792969 126.953125c-1.242187 20.21875-18.082031 36.058594-38.339843 36.058594h-69.4375c-20.257813 0-37.097657-15.839844-38.339844-36.058594l-21.296875-347.023437c-.058594-.964844.410156-1.617188.691406-1.921875.285156-.300782.90625-.808594 1.875-.808594h23.128906c4.140626 0 7.5-3.355469 7.5-7.5s-3.359374-7.5-7.5-7.5h-23.128906c-4.828125 0-9.492187 2.015625-12.800781 5.53125-3.304687 3.519531-5.035156 8.296875-4.738281 13.117188l6.835937 111.355468c-35.226562.691406-63.675781 29.542969-63.675781 64.933594v49.800781c0 4.144531 3.359375 7.5 7.5 7.5s7.5-3.355469 7.5-7.5v-49.800781c0-27.429688 22.214844-49.757812 49.59375-49.957031l.941406 15.316406h-.570312c-19.101563 0-34.644532 15.539063-34.644532 34.640625v101.527344c0 19.101562 15.542969 34.644531 34.644532 34.644531h11.054687l.9375 15.320313h-11.992187c-27.550782 0-49.964844-22.414063-49.964844-49.964844v-17.203125c0-4.144531-3.359375-7.5-7.5-7.5s-7.5 3.355469-7.5 7.5v17.203125c0 35.820312 29.144531 64.964844 64.964844 64.964844h12.914062l.261719 4.242187c1.722656 28.117187 25.140625 50.140625 53.308594 50.140625h14.238281v22.972656c-11.953125 2.917969-20.847656 13.710938-20.847656 26.546875 0 1.625.15625 3.234375.441406 4.8125-13.574219 2.277344-23.953125 14.101563-23.953125 28.3125 0 7.46875 6.074219 13.542969 13.539063 13.542969h102.601562c7.464844 0 13.542969-6.074219 13.542969-13.542969 0-14.210937-10.378907-26.035156-23.953125-28.3125.28125-1.582031.441406-3.1875.441406-4.8125 0-12.835937-8.898438-23.628906-20.847656-26.546875v-22.972656h14.234375c28.167969 0 51.585937-22.023438 53.3125-50.140625l7.792969-126.949219c.253906-4.136718-2.894532-7.695312-7.027344-7.949218zm-190 85.332031c-10.832032 0-19.644532-8.808594-19.644532-19.640625v-101.527344c0-10.832031 8.8125-19.640625 19.644532-19.640625h1.488281l8.644531 140.8125h-10.132812zm95.722656 99.707031h10.964844v22.1875h-10.964844zm41.609375 68.929688c7.070313 0 12.90625 5.378906 13.636719 12.257812h-99.527344c.730469-6.878906 6.566406-12.257812 13.636719-12.257812zm-9.796875-19.410157c0 1.519531-.285156 3.011719-.820312 4.410157h-51.027344c-.535156-1.394532-.8125-2.886719-.8125-4.410157 0-6.800781 5.53125-12.332031 12.332031-12.332031h27.996094c6.800781 0 12.332031 5.53125 12.332031 12.332031zm0 0" fill="#474d54"/><path d="m170.226562 75.90625h-.101562c-4.144531 0-7.5 3.359375-7.5 7.5 0 4.144531 3.355469 7.5 7.5 7.5h.101562c4.144532 0 7.5-3.355469 7.5-7.5 0-4.140625-3.355468-7.5-7.5-7.5zm0 0" fill="#c2c7d0"/><path d="m131.035156 309c0-4.144531-3.355468-7.5-7.5-7.5h-.101562c-4.144532 0-7.5 3.355469-7.5 7.5s3.355468 7.5 7.5 7.5h.101562c4.144532 0 7.5-3.355469 7.5-7.5zm0 0" fill="#f7a500"/><path d="m132.101562 342.5h.101563c4.144531 0 7.5-3.355469 7.5-7.5s-3.355469-7.5-7.5-7.5h-.101563c-4.140624 0-7.5 3.355469-7.5 7.5s3.359376 7.5 7.5 7.5zm0 0" fill="#f7a500"/><path d="m212.765625 273.5c-4.140625 0-7.5 3.355469-7.5 7.5s3.359375 7.5 7.5 7.5h.105469c4.140625 0 7.5-3.355469 7.5-7.5s-3.359375-7.5-7.5-7.5zm0 0" fill="#f7a500"/></svg>